<svg width="435" height="245" xmlns="http://www.w3.org/2000/svg" xmlns:xlink="http://www.w3.org/1999/xlink" xml:space="preserve" overflow="hidden"><g transform="translate(-188 -783)"><path d="M183.8 112.583 234.114 112.583 234.114 164.456 183.8 164.456Z" stroke="#FFAF10" stroke-width="1.11364" stroke-miterlimit="10" fill="none" transform="matrix(1.00029 0 0 1 188 783)"/><path d="M191.662 123.246 198.606 123.246" stroke="#FFAF10" stroke-width="1.11364" stroke-miterlimit="10" fill="none" transform="matrix(1.00029 0 0 1 188 783)"/><path d="M203.456 123.246 225.884 123.246" stroke="#FFAF10" stroke-width="1.11364" stroke-miterlimit="10" fill="none" transform="matrix(1.00029 0 0 1 188 783)"/><path d="M191.662 128.753 198.606 128.753" stroke="#FFAF10" stroke-width="1.11364" stroke-miterlimit="10" fill="none" transform="matrix(1.00029 0 0 1 188 783)"/><path d="M203.456 128.753 225.884 128.753" stroke="#FFAF10" stroke-width="1.11364" stroke-miterlimit="10" fill="none" transform="matrix(1.00029 0 0 1 188 783)"/><path d="M191.662 134.26 198.606 134.26" stroke="#FFAF10" stroke-width="1.11364" stroke-miterlimit="10" fill="none" transform="matrix(1.00029 0 0 1 188 783)"/><path d="M203.456 134.26 225.884 134.26" stroke="#FFAF10" stroke-width="1.11364" stroke-miterlimit="10" fill="none" transform="matrix(1.00029 0 0 1 188 783)"/><path d="M191.662 139.767 198.606 139.767" stroke="#FFAF10" stroke-width="1.11364" stroke-miterlimit="10" fill="none" transform="matrix(1.00029 0 0 1 188 783)"/><path d="M203.456 139.767 225.884 139.767" stroke="#FFAF10" stroke-width="1.11364" stroke-miterlimit="10" fill="none" transform="matrix(1.00029 0 0 1 188 783)"/><path d="M346.296 125.395 355.272 125.395" stroke="#60BCD8" stroke-width="1.11364" stroke-miterlimit="10" fill="none" transform="matrix(1.00029 0 0 1 188 783)"/><path d="M360.117 125.395 367.411 125.395" stroke="#FFAF10" stroke-width="1.11364" stroke-miterlimit="10" fill="none" transform="matrix(1.00029 0 0 1 188 783)"/><path d="M346.296 130.902 355.272 130.902" stroke="#60BCD8" stroke-width="1.11364" stroke-miterlimit="10" fill="none" transform="matrix(1.00029 0 0 1 188 783)"/><path d="M360.117 130.902 367.411 130.902" stroke="#FFAF10" stroke-width="1.11364" stroke-miterlimit="10" fill="none" transform="matrix(1.00029 0 0 1 188 783)"/><path d="M346.296 136.409 355.272 136.409" stroke="#60BCD8" stroke-width="1.11364" stroke-miterlimit="10" fill="none" transform="matrix(1.00029 0 0 1 188 783)"/><path d="M360.117 136.409 367.411 136.409" stroke="#FFAF10" stroke-width="1.11364" stroke-miterlimit="10" fill="none" transform="matrix(1.00029 0 0 1 188 783)"/><path d="M346.296 141.916 355.272 141.916" stroke="#60BCD8" stroke-width="1.11364" stroke-miterlimit="10" fill="none" transform="matrix(1.00029 0 0 1 188 783)"/><path d="M360.117 141.916 367.411 141.916" stroke="#60BCD8" stroke-width="1.11364" stroke-miterlimit="10" fill="none" transform="matrix(1.00029 0 0 1 188 783)"/><path d="M372.645 125.395 387.273 125.395" stroke="#FFAF10" stroke-width="1.11364" stroke-miterlimit="10" fill="none" transform="matrix(1.00029 0 0 1 188 783)"/><path d="M392.122 125.395 399.417 125.395" stroke="#60BCD8" stroke-width="1.11364" stroke-miterlimit="10" fill="none" transform="matrix(1.00029 0 0 1 188 783)"/><path d="M372.645 130.902 387.273 130.902" stroke="#FFAF10" stroke-width="1.11364" stroke-miterlimit="10" fill="none" transform="matrix(1.00029 0 0 1 188 783)"/><path d="M392.122 130.902 399.417 130.902" stroke="#60BCD8" stroke-width="1.11364" stroke-miterlimit="10" fill="none" transform="matrix(1.00029 0 0 1 188 783)"/><path d="M372.645 136.409 387.273 136.409" stroke="#FFAF10" stroke-width="1.11364" stroke-miterlimit="10" fill="none" transform="matrix(1.00029 0 0 1 188 783)"/><path d="M392.122 136.409 399.417 136.409" stroke="#60BCD8" stroke-width="1.11364" stroke-miterlimit="10" fill="none" transform="matrix(1.00029 0 0 1 188 783)"/><path d="M372.645 141.916 387.273 141.916" stroke="#60BCD8" stroke-width="1.11364" stroke-miterlimit="10" fill="none" transform="matrix(1.00029 0 0 1 188 783)"/><path d="M392.122 141.916 399.417 141.916" stroke="#60BCD8" stroke-width="1.11364" stroke-miterlimit="10" fill="none" transform="matrix(1.00029 0 0 1 188 783)"/><path d="M346.296 103.145 355.272 103.145" stroke="#60BCD8" stroke-width="1.11364" stroke-miterlimit="10" fill="none" transform="matrix(1.00029 0 0 1 188 783)"/><path d="M360.117 103.145 367.411 103.145" stroke="#60BCD8" stroke-width="1.11364" stroke-miterlimit="10" fill="none" transform="matrix(1.00029 0 0 1 188 783)"/><path d="M346.296 108.652 355.272 108.652" stroke="#60BCD8" stroke-width="1.11364" stroke-miterlimit="10" fill="none" transform="matrix(1.00029 0 0 1 188 783)"/><path d="M360.117 108.652 367.411 108.652" stroke="#60BCD8" stroke-width="1.11364" stroke-miterlimit="10" fill="none" transform="matrix(1.00029 0 0 1 188 783)"/><path d="M346.296 114.159 355.272 114.159" stroke="#60BCD8" stroke-width="1.11364" stroke-miterlimit="10" fill="none" transform="matrix(1.00029 0 0 1 188 783)"/><path d="M360.117 114.159 367.411 114.159" stroke="#60BCD8" stroke-width="1.11364" stroke-miterlimit="10" fill="none" transform="matrix(1.00029 0 0 1 188 783)"/><path d="M346.296 119.666 355.272 119.666" stroke="#60BCD8" stroke-width="1.11364" stroke-miterlimit="10" fill="none" transform="matrix(1.00029 0 0 1 188 783)"/><path d="M360.117 119.666 367.411 119.666" stroke="#FFAF10" stroke-width="1.11364" stroke-miterlimit="10" fill="none" transform="matrix(1.00029 0 0 1 188 783)"/><path d="M372.645 103.145 387.273 103.145" stroke="#60BCD8" stroke-width="1.11364" stroke-miterlimit="10" fill="none" transform="matrix(1.00029 0 0 1 188 783)"/><path d="M392.122 103.145 399.417 103.145" stroke="#60BCD8" stroke-width="1.11364" stroke-miterlimit="10" fill="none" transform="matrix(1.00029 0 0 1 188 783)"/><path d="M372.645 108.652 387.273 108.652" stroke="#60BCD8" stroke-width="1.11364" stroke-miterlimit="10" fill="none" transform="matrix(1.00029 0 0 1 188 783)"/><path d="M392.122 108.652 399.417 108.652" stroke="#60BCD8" stroke-width="1.11364" stroke-miterlimit="10" fill="none" transform="matrix(1.00029 0 0 1 188 783)"/><path d="M372.645 114.159 387.273 114.159" stroke="#60BCD8" stroke-width="1.11364" stroke-miterlimit="10" fill="none" transform="matrix(1.00029 0 0 1 188 783)"/><path d="M392.122 114.159 399.417 114.159" stroke="#60BCD8" stroke-width="1.11364" stroke-miterlimit="10" fill="none" transform="matrix(1.00029 0 0 1 188 783)"/><path d="M372.645 119.666 387.273 119.666" stroke="#FFAF10" stroke-width="1.11364" stroke-miterlimit="10" fill="none" transform="matrix(1.00029 0 0 1 188 783)"/><path d="M392.122 119.666 399.417 119.666" stroke="#60BCD8" stroke-width="1.11364" stroke-miterlimit="10" fill="none" transform="matrix(1.00029 0 0 1 188 783)"/><path d="M346.296 147.429 355.272 147.429" stroke="#60BCD8" stroke-width="1.11364" stroke-miterlimit="10" fill="none" transform="matrix(1.00029 0 0 1 188 783)"/><path d="M360.117 147.429 367.411 147.429" stroke="#60BCD8" stroke-width="1.11364" stroke-miterlimit="10" fill="none" transform="matrix(1.00029 0 0 1 188 783)"/><path d="M346.296 152.936 355.272 152.936" stroke="#60BCD8" stroke-width="1.11364" stroke-miterlimit="10" fill="none" transform="matrix(1.00029 0 0 1 188 783)"/><path d="M360.117 152.936 367.411 152.936" stroke="#60BCD8" stroke-width="1.11364" stroke-miterlimit="10" fill="none" transform="matrix(1.00029 0 0 1 188 783)"/><path d="M346.296 158.443 355.272 158.443" stroke="#60BCD8" stroke-width="1.11364" stroke-miterlimit="10" fill="none" transform="matrix(1.00029 0 0 1 188 783)"/><path d="M360.117 158.443 367.411 158.443" stroke="#60BCD8" stroke-width="1.11364" stroke-miterlimit="10" fill="none" transform="matrix(1.00029 0 0 1 188 783)"/><path d="M372.645 147.429 387.273 147.429" stroke="#60BCD8" stroke-width="1.11364" stroke-miterlimit="10" fill="none" transform="matrix(1.00029 0 0 1 188 783)"/><path d="M392.122 147.429 399.417 147.429" stroke="#60BCD8" stroke-width="1.11364" stroke-miterlimit="10" fill="none" transform="matrix(1.00029 0 0 1 188 783)"/><path d="M372.645 152.936 387.273 152.936" stroke="#60BCD8" stroke-width="1.11364" stroke-miterlimit="10" fill="none" transform="matrix(1.00029 0 0 1 188 783)"/><path d="M392.122 152.936 399.417 152.936" stroke="#60BCD8" stroke-width="1.11364" stroke-miterlimit="10" fill="none" transform="matrix(1.00029 0 0 1 188 783)"/><path d="M372.645 158.443 387.273 158.443" stroke="#60BCD8" stroke-width="1.11364" stroke-miterlimit="10" fill="none" transform="matrix(1.00029 0 0 1 188 783)"/><path d="M392.122 158.443 399.417 158.443" stroke="#60BCD8" stroke-width="1.11364" stroke-miterlimit="10" fill="none" transform="matrix(1.00029 0 0 1 188 783)"/><path d="M349.682 146.332C349.682 151.533 349.593 148.721 349.52 152.206 349.431 156.265 337.922 159.562 323.617 159.562 309.312 159.562 297.714 156.265 297.714 152.206 297.714 150.43 297.875 147.835 297.875 146.332" stroke="#60BCD8" stroke-width="1.11364" stroke-miterlimit="10" fill="#D0F1F7" transform="matrix(1.00029 0 0 1 188 783)"/><path d="M349.665 146.332C349.665 150.397 338.068 153.693 323.762 153.693 309.456 153.693 297.859 150.397 297.859 146.332 297.859 142.266 309.456 138.971 323.762 138.971 338.068 138.971 349.665 142.266 349.665 146.332Z" stroke="#60BCD8" stroke-width="1.11364" stroke-miterlimit="10" fill="#FFFFFF" transform="matrix(1.00029 0 0 1 188 783)"/><path d="M349.682 134.527C349.682 139.728 349.593 136.916 349.52 140.402 349.431 144.461 337.922 147.757 323.617 147.757 309.312 147.757 297.714 144.461 297.714 140.402 297.714 138.625 297.875 136.031 297.875 134.527" stroke="#60BCD8" stroke-width="1.11364" stroke-miterlimit="10" fill="#D0F1F7" transform="matrix(1.00029 0 0 1 188 783)"/><path d="M349.665 134.527C349.665 138.593 338.068 141.888 323.762 141.888 309.456 141.888 297.859 138.593 297.859 134.527 297.859 130.462 309.456 127.166 323.762 127.166 338.068 127.166 349.665 130.462 349.665 134.527Z" stroke="#60BCD8" stroke-width="1.11364" stroke-miterlimit="10" fill="#FFFFFF" transform="matrix(1.00029 0 0 1 188 783)"/><path d="M349.682 122.355C349.682 127.556 349.593 124.738 349.52 128.224 349.431 132.289 337.922 135.585 323.617 135.585 309.312 135.585 297.714 132.289 297.714 128.224 297.714 126.453 297.875 123.853 297.875 122.355" stroke="#60BCD8" stroke-width="1.11364" stroke-miterlimit="10" fill="#D0F1F7" transform="matrix(1.00029 0 0 1 188 783)"/><path d="M349.665 122.355C349.665 126.421 338.068 129.716 323.762 129.716 309.456 129.716 297.859 126.421 297.859 122.355 297.859 118.29 309.456 114.994 323.762 114.994 338.068 114.994 349.665 118.29 349.665 122.355Z" stroke="#60BCD8" stroke-width="1.11364" stroke-miterlimit="10" fill="#FFFFFF" transform="matrix(1.00029 0 0 1 188 783)"/><path d="M349.682 109.604C349.682 114.805 349.593 111.987 349.52 115.473 349.431 119.538 337.922 122.834 323.617 122.834 309.312 122.834 297.714 119.538 297.714 115.473 297.714 113.702 297.875 111.102 297.875 109.604" stroke="#60BCD8" stroke-width="1.11364" stroke-miterlimit="10" fill="#D0F1F7" transform="matrix(1.00029 0 0 1 188 783)"/><path d="M349.665 109.604C349.665 113.67 338.068 116.965 323.762 116.965 309.456 116.965 297.859 113.67 297.859 109.604 297.859 105.539 309.456 102.243 323.762 102.243 338.068 102.243 349.665 105.539 349.665 109.604Z" stroke="#60BCD8" stroke-width="1.11364" stroke-miterlimit="10" fill="#FFFFFF" transform="matrix(1.00029 0 0 1 188 783)"/><path d="M52.4133 81.4848C50.3586 81.1618 50.882 83.4837 50.7094 87.5151 50.5614 89.3058 51.3729 91.0409 52.842 92.0755" stroke="#4C5054" stroke-width="1.11364" stroke-miterlimit="10" fill="none" transform="matrix(1.00029 0 0 1 188 783)"/><path d="M59.3401 83.7566C56.2776 85.5662 56.0438 88.4561 56.4614 91.8639 56.5783 92.8049 53.4935 91.307 51.45 92.6156 49.0835 101.191 56.556 102.967 56.556 104.08L56.556 109.988C56.556 112.561 65.0475 118.697 72.2861 118.697 79.5248 118.697 87.181 111.458 87.181 109.988 87.181 108.518 87.0418 106.169 87.181 103.941 92.61 101.436 93.306 92.9441 91.7748 92.6156 90.3644 92.2637 88.9127 92.1066 87.4594 92.1478 87.4594 88.0163 86.485 83.9125 82.0305 83.9125L62.8202 83.9125C56.3389 83.9125 53.2207 82.5316 51.7952 80.8778 51.0727 80.0588 50.6764 79.0025 50.6816 77.91 50.6816 75.4043 53.3265 74.5134 49.3341 71.863 51.5614 71.217 56.5727 72.1247 57.6418 74.647 58.6831 72.6815 61.8013 66.7681 58.6162 63.5107 61.5395 64.4851 66.6456 69.4018 65.7602 75.0647 68.8673 72.4198 71.089 64.1343 70.2593 61.8625 73.9566 64.7635 75.8832 71.1669 74.9533 76.2451 77.5982 76.156 81.8634 71.4453 80.5827 65.3203 83.9236 69.0789 86.201 73.1158 85.1932 77.743 88.1276 78.5448 89.876 75.2039 90.3549 72.4198 95.2772 84.1798 90.2045 92.3093 90.2045 92.3093" stroke="#4C5054" stroke-width="1.11364" stroke-miterlimit="10" fill="none" transform="matrix(1.00029 0 0 1 188 783)"/><path d="M62.681 115.874C62.9333 118.293 62.9333 120.732 62.681 123.151 62.2634 127.188 56.6952 127.606 48.7606 129.276 43.9831 129.922 34.1441 149.74 34.1441 157.429 34.1441 161.049 44.5622 179.886 44.5622 179.886" stroke="#4C5054" stroke-width="1.11364" stroke-miterlimit="10" fill="none" transform="matrix(1.00029 0 0 1 188 783)"/><path d="M80.7943 115.874C80.5421 118.293 80.5421 120.732 80.7943 123.151 81.2119 127.188 86.7801 127.606 94.7148 129.276 104.119 132.918 108.195 153.398 110.061 159.985 109.042 165.553 99.3698 179.886 99.3698 179.886" stroke="#4C5054" stroke-width="1.11364" stroke-miterlimit="10" fill="none" transform="matrix(1.00029 0 0 1 188 783)"/><path d="M71.5957 127.467C71.8184 127.467 72.0356 127.467 72.2472 127.467 76.4233 127.378 78.7731 126.403 81.1562 124.482 82.4536 125.93 84.9705 127.89 86.1342 127.472 87.298 127.055 79.9313 132.901 71.5734 132.345 63.2156 131.788 59.8802 129.455 58.6218 127.071 60.231 126.387 61.9015 125.808 62.2801 124.482 64.6577 127.049 68.5276 127.651 71.5957 127.467Z" stroke="#4C5054" stroke-width="1.11364" stroke-miterlimit="10" fill="#4C5054" transform="matrix(1.00029 0 0 1 188 783)"/><path d="M92.6657 143.871 52.7585 143.871 52.6583 138.019 92.6657 137.439 92.6657 143.871Z" fill="#4C5054" transform="matrix(1.00029 0 0 1 188 783)"/><path d="M94.2805 151.137 50.8208 151.137 50.7039 149.149 93.6513 149.149 94.2805 151.137Z" fill="#4C5054" transform="matrix(1.00029 0 0 1 188 783)"/><path d="M56.066 91.5632C58.8 90.3605 66.5676 91.5632 71.5734 94.5088 74.6749 91.307 84.3023 90.0987 87.6098 91.4184 87.6243 91.7904 87.8147 92.1334 88.122 92.3427 86.1453 93.1167 82.8044 97.9109 79.87 98.6403 78.5559 98.9633 72.2639 97.4989 70.9609 97.7717 68.5404 98.3202 66.0654 98.593 63.5831 98.5847 59.9749 98.6905 56.0772 92.61 56.0772 92.61Z" stroke="#4C5054" stroke-width="1.11364" stroke-miterlimit="10" fill="#4C5054" transform="matrix(1.00029 0 0 1 188 783)"/><path d="M101.976 175.832 106.681 175.832 99.3586 191.284 44.9018 191.284 36.5161 175.832 41.7391 175.832" stroke="#4C5054" stroke-width="1.11364" stroke-miterlimit="10" fill="none" transform="matrix(1.00029 0 0 1 188 783)"/><path d="M40.102 151.026 103.83 151.026 97.6047 191.284 46.3217 191.284 40.102 151.026Z" stroke="#4C5054" stroke-width="1.11364" stroke-miterlimit="10" fill="#FFFFFF" transform="matrix(1.00029 0 0 1 188 783)"/><path d="M36.5161 175.832 44.9018 193.639 99.3586 193.639 106.681 175.832" stroke="#4C5054" stroke-width="1.11364" stroke-miterlimit="10" fill="none" transform="matrix(1.00029 0 0 1 188 783)"/><path d="M70.9386 106.909C69.9197 107.004 67.1356 108.078 65.7881 107.616" stroke="#4C5054" stroke-width="1.11364" stroke-miterlimit="10" fill="#4C5054" transform="matrix(1.00029 0 0 1 188 783)"/><path d="M72.1024 106.909C73.1214 106.909 75.5825 108.151 77.253 107.733" stroke="#4C5054" stroke-width="1.11364" stroke-miterlimit="10" fill="#4C5054" transform="matrix(1.00029 0 0 1 188 783)"/><path d="M69.0566 110.807 74.1348 110.807" stroke="#4C5054" stroke-width="1.11364" stroke-miterlimit="10" fill="none" transform="matrix(1.00029 0 0 1 188 783)"/><path d="M43.042 135.947C44.629 139.065 51.5224 143.776 52.7585 143.871 53.9947 143.965 54.3733 138.447 54.3733 138.447 50.2361 136.342 47.2293 133.915 46.2159 131.131Z" fill="#4C5054" transform="matrix(1.00029 0 0 1 188 783)"/><path d="M39.6844 140.669C42.2625 143.965 53.1205 150.018 54.3733 149.689 54.0949 150.575 52.753 151.137 52.2852 151.137 52.4745 151.338 42.6801 150.619 42.6801 150.619 42.6801 150.619 36.5551 147.613 37.1119 146.254 37.7578 144.689 39.9127 140.641 39.6844 140.669Z" fill="#4C5054" transform="matrix(1.00029 0 0 1 188 783)"/><path d="M34.7232 153.398C35.5139 154.049 40.0575 155.803 40.8148 155.625 40.7814 156.071 41.4273 160.993 41.4273 160.993 41.4273 160.993 35.1742 161.26 34.2889 159.963 34.4225 158.415 34.7232 153.398 34.7232 153.398Z" fill="#4C5054" transform="matrix(1.00029 0 0 1 188 783)"/><path d="M37.7857 166.845C40.7925 166.895 42.424 166.06 42.346 165.57 42.2681 165.08 42.9975 169.779 42.9975 169.779 42.9975 169.779 45.002 172.118 40.592 172.441 39.0664 171.027 37.7857 166.845 37.7857 166.845Z" fill="#4C5054" transform="matrix(1.00029 0 0 1 188 783)"/><path d="M101.308 135.947C99.715 139.065 93.9018 143.776 92.6657 143.871 91.4295 143.965 89.4139 138.954 89.4139 138.954 93.59 137.746 97.1202 133.915 98.1169 131.131Z" fill="#4C5054" transform="matrix(1.00029 0 0 1 188 783)"/><path d="M104.248 141.337C101.664 144.634 93.3116 149.784 92.0588 149.461 92.3427 150.341 91.5966 151.132 92.0588 151.132 91.875 151.332 101.664 150.614 101.664 150.614 101.664 150.614 106.814 148.136 106.258 146.783 105.617 145.218 104.014 141.309 104.248 141.337Z" fill="#4C5054" transform="matrix(1.00029 0 0 1 188 783)"/><path d="M108.396 153.821C107.605 154.473 104.286 155.803 103.535 155.647 103.568 156.093 102.917 161.015 102.917 161.015 102.917 161.015 109.175 161.282 110.061 159.985 109.927 158.415 108.396 153.821 108.396 153.821Z" fill="#4C5054" transform="matrix(1.00029 0 0 1 188 783)"/><path d="M107.405 166.533C104.403 166.589 101.926 166.06 101.998 165.57 102.07 165.08 101.346 169.779 101.346 169.779 101.346 169.779 99.921 171.7 104.331 172.007 105.857 170.609 107.405 166.533 107.405 166.533Z" fill="#4C5054" transform="matrix(1.00029 0 0 1 188 783)"/><path d="M166.388 154.901 155.096 154.901 155.096 107.31 148.86 107.31 148.86 75.8609 141.721 75.8609 141.721 54.3343 135.151 54.3343 135.151 60.8769 151.772 60.8769 151.772 25.0067" stroke="#CBD0D1" stroke-width="0.556818" stroke-miterlimit="10" fill="none" transform="matrix(1.00029 0 0 1 188 783)"/><path d="M103.535 155.647 122.678 155.647 122.678 92.0755 115.44 92.0755 115.44 99.9878 126.943 99.9878 126.943 65.6544 96.6915 65.6544 96.6915 51.734 108 51.734 108 44.4508 30.174 44.4508 30.174 29.5225" stroke="#CBD0D1" stroke-width="0.556818" stroke-miterlimit="10" fill="none" transform="matrix(1.00029 0 0 1 188 783)"/><path d="M323.595 107.355 323.595 81.2899 318.678 81.2899 318.678 89.1522 333.339 89.1522 333.339 61.8681" stroke="#CBD0D1" stroke-width="0.556818" stroke-miterlimit="10" fill="none" transform="matrix(1.00029 0 0 1 188 783)"/><path d="M249.816 154.79 259.427 154.79 259.427 116.96 275.263 116.96 275.263 100.962 266.354 100.962 266.616 82.8323 276.36 82.8323 276.36 66.5843" stroke="#CBD0D1" stroke-width="0.556818" stroke-miterlimit="10" fill="none" transform="matrix(1.00029 0 0 1 188 783)"/><path d="M410.319 128.425 420.682 128.425 420.682 189.925 281.934 190.855 258.369 191.016 258.369 172.441 252.434 172.441" stroke="#D60000" stroke-width="0.556818" stroke-miterlimit="10" fill="none" transform="matrix(1.00029 0 0 1 188 783)"/><path d="M191.662 148.76 226.77 148.76 226.77 159.796 191.662 159.796Z" fill="#FCF1E0" transform="matrix(1.00029 0 0 1 188 783)"/><path d="M119.337 138.664 122.678 133.759 126.019 138.77 119.337 138.664Z" fill="#CBD0D1" transform="matrix(1.00029 0 0 1 188 783)"/><path d="M163.989 151.449 168.894 154.79 163.883 158.131 163.989 151.449Z" fill="#CBD0D1" transform="matrix(1.00029 0 0 1 188 783)"/><path d="M158.454 113.474 155.113 118.38 151.772 113.368 158.454 113.474Z" fill="#CBD0D1" transform="matrix(1.00029 0 0 1 188 783)"/><path d="M256.086 137.985 259.427 133.08 262.768 138.091 256.086 137.985Z" fill="#CBD0D1" transform="matrix(1.00029 0 0 1 188 783)"/><path d="M327.019 104.955 323.678 109.86 320.337 104.849 327.019 104.955Z" fill="#CBD0D1" transform="matrix(1.00029 0 0 1 188 783)"/><path d="M423.917 177.079 420.576 181.985 417.235 176.974 423.917 177.079Z" fill="#D60000" transform="matrix(1.00029 0 0 1 188 783)"/><path d="M294.362 194.357 289.456 191.016 294.468 187.676 294.362 194.357Z" fill="#D60000" transform="matrix(1.00029 0 0 1 188 783)"/><path d="M346.296 163.977 355.272 163.977" stroke="#60BCD8" stroke-width="1.11364" stroke-miterlimit="10" fill="none" transform="matrix(1.00029 0 0 1 188 783)"/><path d="M360.117 163.977 367.411 163.977" stroke="#60BCD8" stroke-width="1.11364" stroke-miterlimit="10" fill="none" transform="matrix(1.00029 0 0 1 188 783)"/><path d="M346.296 169.484 355.272 169.484" stroke="#60BCD8" stroke-width="1.11364" stroke-miterlimit="10" fill="none" transform="matrix(1.00029 0 0 1 188 783)"/><path d="M360.117 169.484 367.411 169.484" stroke="#60BCD8" stroke-width="1.11364" stroke-miterlimit="10" fill="none" transform="matrix(1.00029 0 0 1 188 783)"/><path d="M372.645 163.977 387.273 163.977" stroke="#60BCD8" stroke-width="1.11364" stroke-miterlimit="10" fill="none" transform="matrix(1.00029 0 0 1 188 783)"/><path d="M392.122 163.977 399.417 163.977" stroke="#60BCD8" stroke-width="1.11364" stroke-miterlimit="10" fill="none" transform="matrix(1.00029 0 0 1 188 783)"/><path d="M372.645 169.484 387.273 169.484" stroke="#60BCD8" stroke-width="1.11364" stroke-miterlimit="10" fill="none" transform="matrix(1.00029 0 0 1 188 783)"/><path d="M392.122 169.484 399.417 169.484" stroke="#60BCD8" stroke-width="1.11364" stroke-miterlimit="10" fill="none" transform="matrix(1.00029 0 0 1 188 783)"/><path d="M403.008 125.395 410.303 125.395" stroke="#D60000" stroke-width="1.11364" stroke-miterlimit="10" fill="none" transform="matrix(1.00029 0 0 1 188 783)"/><path d="M403.008 130.902 410.303 130.902" stroke="#D60000" stroke-width="1.11364" stroke-miterlimit="10" fill="none" transform="matrix(1.00029 0 0 1 188 783)"/><path d="M403.008 136.409 410.303 136.409" stroke="#D60000" stroke-width="1.11364" stroke-miterlimit="10" fill="none" transform="matrix(1.00029 0 0 1 188 783)"/><path d="M403.008 141.916 410.303 141.916" stroke="#D60000" stroke-width="1.11364" stroke-miterlimit="10" fill="none" transform="matrix(1.00029 0 0 1 188 783)"/><path d="M403.008 108.652 410.303 108.652" stroke="#D60000" stroke-width="1.11364" stroke-miterlimit="10" fill="none" transform="matrix(1.00029 0 0 1 188 783)"/><path d="M403.008 114.159 410.303 114.159" stroke="#D60000" stroke-width="1.11364" stroke-miterlimit="10" fill="none" transform="matrix(1.00029 0 0 1 188 783)"/><path d="M403.008 119.666 410.303 119.666" stroke="#D60000" stroke-width="1.11364" stroke-miterlimit="10" fill="none" transform="matrix(1.00029 0 0 1 188 783)"/><path d="M403.008 147.429 410.303 147.429" stroke="#D60000" stroke-width="1.11364" stroke-miterlimit="10" fill="none" transform="matrix(1.00029 0 0 1 188 783)"/><path d="M403.008 152.936 410.303 152.936" stroke="#D60000" stroke-width="1.11364" stroke-miterlimit="10" fill="none" transform="matrix(1.00029 0 0 1 188 783)"/><path d="M403.008 158.443 410.303 158.443" stroke="#D60000" stroke-width="1.11364" stroke-miterlimit="10" fill="none" transform="matrix(1.00029 0 0 1 188 783)"/><path d="M403.008 163.977 410.303 163.977" stroke="#D60000" stroke-width="1.11364" stroke-miterlimit="10" fill="none" transform="matrix(1.00029 0 0 1 188 783)"/><path d="M403.008 103.145 410.303 103.145 410.303 169.484 403.008 169.484" stroke="#D60000" stroke-width="1.11364" stroke-miterlimit="10" fill="none" transform="matrix(1.00029 0 0 1 188 783)"/><path d="M254.728 175.364 249.816 172.023 254.828 168.683 254.728 175.364Z" fill="#D60000" transform="matrix(1.00029 0 0 1 188 783)"/><path d="M163.048 179.585 159.707 184.491 156.366 179.479 163.048 179.585Z" fill="#D60000" transform="matrix(1.00029 0 0 1 188 783)"/><path d="M74.4967 226.575 69.5911 223.234 74.6025 219.893 74.4967 226.575Z" fill="#D60000" transform="matrix(1.00029 0 0 1 188 783)"/><path d="M22.8017 199.402 26.1426 194.497 29.4835 199.508 22.8017 199.402Z" fill="#D60000" transform="matrix(1.00029 0 0 1 188 783)"/><path d="M169.557 90.9563 249.243 90.9563 249.243 103.524 169.557 103.524Z" stroke="#FFAF10" stroke-width="1.11364" stroke-miterlimit="10" fill="#FCF1E0" transform="matrix(1.00029 0 0 1 188 783)"/><path d="M211.758 97.1926 217.827 97.1926" stroke="#FFAF10" stroke-width="1.11364" stroke-miterlimit="10" fill="none" transform="matrix(1.00029 0 0 1 188 783)"/><path d="M220.7 97.1926 226.77 97.1926" stroke="#FFAF10" stroke-width="1.11364" stroke-miterlimit="10" fill="none" transform="matrix(1.00029 0 0 1 188 783)"/><path d="M229.582 97.1926 235.645 97.1926" stroke="#FFAF10" stroke-width="1.11364" stroke-miterlimit="10" fill="none" transform="matrix(1.00029 0 0 1 188 783)"/><path d="M238.524 97.1926 244.588 97.1926" stroke="#FFAF10" stroke-width="1.11364" stroke-miterlimit="10" fill="none" transform="matrix(1.00029 0 0 1 188 783)"/><path d="M188.767 97.2427C188.767 98.8603 185.426 100.172 181.306 100.172 177.185 100.172 173.844 98.8603 173.844 97.2427 173.844 95.6252 177.185 94.3139 181.306 94.3139 185.426 94.3139 188.767 95.6252 188.767 97.2427Z" stroke="#FFAF10" stroke-width="1.11364" stroke-miterlimit="10" fill="#FFFFFF" transform="matrix(1.00029 0 0 1 188 783)"/><path d="M200.455 155.029C200.458 155.22 200.424 155.409 200.354 155.586 200.284 155.746 200.179 155.889 200.048 156.004 199.903 156.126 199.735 156.218 199.553 156.271 199.336 156.336 199.11 156.368 198.884 156.366 198.669 156.366 198.454 156.344 198.244 156.299 198.051 156.252 197.864 156.183 197.687 156.093L197.687 155.185 197.988 155.324 198.3 155.447 198.611 155.53C198.716 155.55 198.823 155.56 198.929 155.558 199.021 155.56 199.113 155.549 199.202 155.525 199.271 155.508 199.334 155.473 199.385 155.425 199.431 155.382 199.466 155.331 199.491 155.274 199.513 155.21 199.522 155.142 199.519 155.074 199.52 154.996 199.503 154.92 199.469 154.851 199.428 154.781 199.375 154.719 199.313 154.667 199.242 154.601 199.161 154.544 199.074 154.5L198.767 154.328C198.673 154.278 198.561 154.216 198.444 154.144 198.321 154.073 198.208 153.985 198.11 153.882 198.002 153.771 197.911 153.643 197.843 153.504 197.768 153.328 197.732 153.138 197.737 152.947 197.733 152.756 197.767 152.567 197.837 152.39 197.904 152.234 198.003 152.094 198.127 151.978 198.26 151.863 198.415 151.778 198.584 151.727 198.776 151.665 198.977 151.635 199.179 151.638 199.289 151.63 199.399 151.63 199.508 151.638 199.608 151.638 199.714 151.672 199.82 151.7 199.926 151.727 200.026 151.761 200.126 151.8 200.236 151.84 200.344 151.887 200.449 151.939L200.137 152.691 199.875 152.574 199.636 152.49 199.413 152.44C199.338 152.435 199.261 152.435 199.185 152.44 199.049 152.43 198.914 152.476 198.812 152.568 198.725 152.661 198.678 152.786 198.684 152.913 198.682 152.984 198.695 153.054 198.723 153.119 198.755 153.183 198.798 153.24 198.851 153.286 198.917 153.346 198.99 153.398 199.068 153.442 199.163 153.498 199.269 153.559 199.402 153.626 199.536 153.693 199.697 153.799 199.831 153.882 199.956 153.964 200.07 154.061 200.171 154.172 200.265 154.276 200.338 154.397 200.388 154.528 200.445 154.689 200.468 154.859 200.455 155.029Z" fill="#FFAF10" transform="matrix(1.00029 0 0 1 188 783)"/><path d="M204.764 151.733 204.764 154.684C204.768 154.91 204.732 155.133 204.659 155.347 204.517 155.762 204.192 156.088 203.779 156.232 203.531 156.322 203.268 156.365 203.005 156.36 202.751 156.366 202.498 156.324 202.259 156.238 202.049 156.171 201.858 156.054 201.702 155.898 201.551 155.74 201.438 155.549 201.373 155.341 201.293 155.12 201.253 154.886 201.256 154.651L201.256 151.733 202.225 151.733 202.225 154.601C202.222 154.747 202.239 154.893 202.275 155.035 202.301 155.142 202.351 155.243 202.42 155.33 202.489 155.403 202.572 155.46 202.665 155.497 202.776 155.533 202.893 155.549 203.01 155.547 203.233 155.568 203.452 155.481 203.601 155.313 203.738 155.1 203.802 154.848 203.784 154.595L203.784 151.733Z" fill="#FFAF10" transform="matrix(1.00029 0 0 1 188 783)"/><path d="M205.884 151.733 207.22 151.733C207.474 151.728 207.727 151.749 207.977 151.794 208.173 151.824 208.362 151.891 208.534 151.989 208.673 152.077 208.787 152.2 208.863 152.345 208.943 152.52 208.981 152.711 208.974 152.902 208.975 153.025 208.958 153.147 208.924 153.264 208.896 153.371 208.851 153.473 208.79 153.565 208.73 153.649 208.654 153.721 208.567 153.776 208.477 153.833 208.377 153.873 208.272 153.893L208.272 153.893C208.381 153.92 208.487 153.955 208.59 153.999 208.797 154.102 208.954 154.285 209.024 154.506 209.07 154.653 209.09 154.808 209.085 154.962 209.09 155.153 209.053 155.343 208.979 155.519 208.907 155.68 208.801 155.822 208.668 155.937 208.518 156.054 208.349 156.144 208.166 156.199 207.953 156.259 207.732 156.289 207.509 156.288L205.895 156.288ZM206.852 153.543 207.354 153.543C207.457 153.545 207.56 153.534 207.66 153.509 207.732 153.491 207.798 153.456 207.855 153.409 207.905 153.367 207.942 153.31 207.96 153.247 207.987 153.172 207.998 153.093 207.994 153.014 208.009 152.869 207.948 152.728 207.832 152.641 207.675 152.551 207.495 152.51 207.315 152.524L206.852 152.524ZM206.852 154.311 206.852 155.497 207.409 155.497C207.519 155.502 207.628 155.486 207.732 155.452 207.886 155.407 208.007 155.288 208.055 155.135 208.078 155.052 208.089 154.965 208.089 154.879 208.09 154.8 208.078 154.721 208.055 154.645 208.034 154.576 207.993 154.514 207.938 154.467 207.875 154.412 207.801 154.372 207.721 154.35 207.612 154.32 207.499 154.308 207.387 154.311Z" fill="#FFAF10" transform="matrix(1.00029 0 0 1 188 783)"/><path d="M211.83 156.299 210.828 152.713 210.8 152.713C210.8 152.908 210.8 153.092 210.828 153.27 210.828 153.348 210.828 153.426 210.828 153.509 210.828 153.593 210.828 153.671 210.828 153.749 210.828 153.827 210.828 153.905 210.828 153.977L210.828 156.299 209.965 156.299 209.965 151.733 211.285 151.733 212.27 155.224 212.27 155.224 213.323 151.733 214.637 151.733 214.637 156.299 213.735 156.299 213.735 153.955C213.735 153.882 213.735 153.81 213.735 153.732 213.735 153.654 213.735 153.576 213.735 153.498 213.735 153.42 213.735 153.342 213.735 153.27 213.735 153.092 213.735 152.913 213.735 152.713L213.735 152.713 212.621 156.288Z" fill="#FFAF10" transform="matrix(1.00029 0 0 1 188 783)"/><path d="M217.538 156.299 215.489 156.299 215.489 155.742 216.045 155.486 216.045 152.529 215.489 152.273 215.489 151.716 217.566 151.716 217.566 152.273 217.009 152.529 217.009 155.486 217.566 155.742Z" fill="#FFAF10" transform="matrix(1.00029 0 0 1 188 783)"/><path d="M219.988 156.299 219.019 156.299 219.019 152.535 217.872 152.535 217.872 151.733 221.129 151.733 221.129 152.535 219.988 152.535Z" fill="#FFAF10" transform="matrix(1.00029 0 0 1 188 783)"/><path d="M45.002 186.022 26.1426 186.022 26.1426 211.363 39.935 211.363 39.935 223.696" stroke="#D60000" stroke-width="0.556818" stroke-miterlimit="10" fill="none" transform="matrix(1.00029 0 0 1 188 783)"/><path d="M169.278 172.441 159.707 172.441 159.707 194.497 117.294 194.497 117.294 223.234 39.935 223.696" stroke="#D60000" stroke-width="0.556818" stroke-miterlimit="10" fill="none" transform="matrix(1.00029 0 0 1 188 783)"/><path d="M79.2909 173.811 79.4858 173.772 79.4858 173.772C79.6807 173.738 79.87 173.716 80.0426 173.694L80.1428 173.694 80.3489 173.666 80.3489 173.666 80.5326 173.633 80.5326 173.633C80.6841 173.602 80.8311 173.556 80.9725 173.493 81.1941 173.389 81.3678 173.204 81.4569 172.976 81.6351 172.623 81.502 172.192 81.1562 172.001 81.1613 171.885 81.1501 171.769 81.1228 171.656 81.075 171.312 80.8316 171.027 80.4992 170.926 80.424 170.909 80.3478 170.9 80.2709 170.899 79.9352 170.912 79.6256 171.084 79.4357 171.361 79.2124 171.623 78.9401 171.839 78.6339 171.996L78.2218 172.19 78.2218 172.19 77.9323 172.324C77.665 172.447 77.3755 172.575 77.0859 172.703 77.2418 170.292 78.3165 168.248 77.1806 166.689 76.0447 165.13 73.951 164.735 71.952 164.696L71.4732 164.696C70.467 164.699 69.4686 164.867 68.5165 165.191L68.4107 165.23C67.6567 165.504 66.9936 165.982 66.4952 166.611 65.5598 167.847 66.2669 169.356 66.6567 171.094L66.7012 171.294C66.797 171.726 66.8527 172.166 66.8683 172.608 66.8739 172.704 66.8739 172.801 66.8683 172.898L66.8683 172.925C66.8622 173.385 66.9713 173.839 67.1857 174.245 66.3271 173.85 65.4389 173.523 64.5297 173.265 63.455 172.987 62.5474 173.159 62.4917 172.246 62.5279 172.05 62.676 171.893 62.8703 171.845 62.9227 171.992 63.0201 172.119 63.1488 172.207 62.8208 171.9 62.8035 171.386 63.1098 171.058 63.181 170.982 63.2662 170.92 63.3603 170.876 64.0564 170.743 64.0174 171.433 64.9918 171.99 65.5486 172.28 66.1667 172.597 66.8683 172.925L66.8683 172.925C66.8739 172.831 66.8739 172.736 66.8683 172.641 66.2168 172.335 65.621 172.035 65.131 171.767 65.0258 171.713 64.925 171.649 64.8303 171.578L64.7468 171.511C64.6071 171.388 64.4768 171.253 64.357 171.11 64.1772 170.825 63.8748 170.639 63.5385 170.609 63.4606 170.601 63.3826 170.601 63.3047 170.609 62.9717 170.7 62.7194 170.972 62.6532 171.311 62.6248 171.424 62.6103 171.54 62.6086 171.656 62.3787 171.778 62.2272 172.009 62.2077 172.268 62.2122 172.645 62.4277 172.987 62.7645 173.154 63.0697 173.29 63.3954 173.374 63.7278 173.404 63.9728 173.443 64.2234 173.482 64.4907 173.549 65.5113 173.847 66.5091 174.219 67.4752 174.663L67.4752 174.663C67.7581 175.032 68.0855 175.364 68.4497 175.654L68.4942 175.687 68.6668 175.832 68.767 175.932 68.7002 175.96 68.2381 176.122 68.1768 176.122C67.2681 176.445 66.3376 176.706 65.3927 176.901 64.8972 176.986 64.3971 177.044 63.8949 177.074 63.4901 177.072 63.0875 177.136 62.7033 177.263 62.3358 177.417 62.098 177.778 62.1019 178.176 62.0836 178.461 62.1754 178.742 62.3581 178.961 62.4672 179.089 62.6098 179.184 62.7701 179.234 62.7478 179.369 62.7478 179.506 62.7701 179.641 62.8158 179.941 63.014 180.196 63.2935 180.314 63.4494 180.378 63.6154 180.415 63.7835 180.42 63.8954 180.427 64.0074 180.41 64.112 180.37L64.3125 180.281C64.5146 180.146 64.7012 179.989 64.8693 179.813 65.2496 179.417 65.6845 179.078 66.1611 178.805 66.9034 178.4 67.6762 178.052 68.4719 177.764L69.0287 177.547 69.2738 177.464 69.2738 177.464 69.4742 177.391 69.5243 177.391C69.5243 177.391 69.786 177.642 69.8751 177.703 70.4603 178.076 71.148 178.255 71.8407 178.215 73.0211 178.215 73.6503 177.926 74.068 177.514L74.068 177.514C74.725 177.781 75.382 178.07 75.989 178.343 76.2618 178.471 76.9745 178.856 76.9745 178.856L77.2919 179.045C77.7552 179.339 78.1767 179.695 78.5448 180.103 78.8844 180.465 79.1573 180.749 79.6083 180.754 79.7759 180.758 79.9424 180.727 80.0983 180.665 80.3021 180.594 80.4697 180.446 80.566 180.253 80.6228 180.14 80.6607 180.017 80.6774 179.891 80.6857 179.797 80.6857 179.702 80.6774 179.607L80.6774 179.607 80.6774 179.607C80.8283 179.562 80.9647 179.478 81.0727 179.362 81.2648 179.151 81.3684 178.874 81.3623 178.588 81.3812 178.193 81.1618 177.824 80.8055 177.653 80.429 177.511 80.0326 177.43 79.6306 177.413L79.3689 177.413 78.9512 177.363 78.7953 177.363 78.7953 177.363C78.5893 177.33 78.3722 177.291 78.1383 177.235 77.5225 177.086 76.9166 176.9 76.3231 176.678L75.8943 176.522 74.8976 176.138 74.8976 176.138C74.9249 176.094 74.9589 176.055 74.9978 176.021 75.1254 175.915 75.2596 175.816 75.3988 175.726 75.5992 175.587 76.1449 175.142 76.1449 175.142 76.2691 175.026 76.3832 174.899 76.4845 174.763L76.4845 174.763 77.0414 174.551 77.1026 174.551C77.4311 174.429 77.7541 174.318 78.0548 174.217L78.0993 174.217C78.5949 173.983 78.9624 173.883 79.2909 173.811ZM69.2682 177.213 69.2682 177.213 68.9341 177.335 68.6445 177.447 68.3995 177.536 68.3995 177.536C67.7425 177.792 67.1077 178.054 66.5509 178.332 66.5509 178.332 66.5509 178.332 66.4618 178.377L66.0888 178.577C64.4907 179.496 64.4183 180.465 63.4661 180.075 62.9093 179.858 63.0374 178.961 63.3882 178.638 63.2557 178.735 63.1549 178.868 63.0986 179.023 62.7027 178.995 62.4048 178.651 62.4327 178.255 62.4338 178.244 62.4349 178.232 62.436 178.221 62.5195 177.168 63.5497 177.53 65.337 177.23L65.415 177.23 65.493 177.23C66.6806 176.972 67.8477 176.626 68.9842 176.194L69.0287 176.194 69.0287 176.244C69.1958 176.506 69.2793 176.84 69.4631 177.168L69.4631 177.168ZM71.8964 177.798 71.9409 177.736C71.9231 177.759 71.9025 177.78 71.8797 177.798ZM75.9055 176.723 76.2117 176.834 76.2117 176.834 76.3286 176.873 76.3286 176.873 76.3899 176.873 76.3899 176.873 76.6349 176.962C77.1366 177.14 77.6477 177.291 78.1661 177.413 78.478 177.486 78.7675 177.53 79.0348 177.569L79.2798 177.603 79.8366 177.658 79.8756 177.658C80.7108 177.753 81.173 177.842 81.2064 178.544 81.2342 178.942 80.9335 179.288 80.5348 179.317 80.5265 179.317 80.5187 179.317 80.5103 179.318 80.4613 179.162 80.3633 179.025 80.2319 178.928 80.4858 179.226 80.5644 179.637 80.438 180.008L80.438 180.008C80.3789 180.16 80.257 180.277 80.1039 180.331 79.1127 180.682 79.1016 179.719 77.5425 178.739L77.1806 178.521C76.9244 178.377 76.1003 177.965 76.1003 177.965 75.5435 177.703 74.9477 177.452 74.3575 177.213 74.5529 176.908 74.7222 176.588 74.8642 176.255ZM76.0168 174.952 76.0168 174.952ZM76.8409 172.831 76.8409 173.148C76.8409 173.226 76.8409 173.304 76.8409 173.382 76.8487 173.755 76.744 174.122 76.5402 174.434 76.3977 174.659 76.2078 174.849 75.9834 174.991 75.4767 175.303 74.9032 175.409 74.6916 175.609 74.617 175.689 74.5529 175.78 74.5023 175.877 74.4577 175.961 74.4187 176.049 74.3853 176.138 74.3185 176.327 74.2228 176.503 74.1014 176.662 74.1225 176.835 74.1131 177.01 74.0735 177.18 74.0329 177.264 73.961 177.33 73.8731 177.363L73.8118 177.363 73.745 177.363C73.6966 177.261 73.6776 177.147 73.6893 177.035L73.6893 176.99 73.6559 176.99 73.6559 176.99C73.6643 177.092 73.6643 177.195 73.6559 177.296 73.6893 177.536 73.3441 177.742 73.3218 177.163 73.3218 177.135 73.3218 177.113 73.3218 177.085L73.2606 177.085 73.2606 177.129C73.2606 177.413 73.3441 177.686 73.0657 177.736 72.7873 177.786 72.8374 177.53 72.8652 177.152L72.6982 177.152C72.6982 177.464 72.8541 177.837 72.4253 177.831 72.3663 177.832 72.3078 177.823 72.2527 177.803 72.1024 177.742 72.1135 177.497 72.1135 177.497 72.1135 177.402 72.1135 177.291 72.1414 177.168L71.9688 177.168C71.9688 177.441 72.0857 177.725 71.8073 177.809L71.6959 177.809C71.295 177.809 71.3785 177.547 71.4119 177.129L71.2894 177.129C71.2894 177.425 71.334 177.753 71.089 177.686 70.844 177.619 70.8662 177.436 70.8885 177.057L70.8328 177.057C70.8328 177.302 70.8328 177.519 70.6658 177.48 70.4987 177.441 70.4876 177.313 70.4987 177.074 70.496 177.036 70.496 177 70.4987 176.962L70.4653 176.962C70.4687 177.007 70.4687 177.051 70.4653 177.096 70.4653 177.475 70.2482 177.263 70.1535 177.207 70.065 177.154 70.0088 177.06 70.0032 176.957L70.0032 176.834C70.0065 176.784 70.0065 176.734 70.0032 176.684 69.9013 176.58 69.815 176.462 69.747 176.333L69.747 176.333C69.6858 176.216 69.6357 176.094 69.5744 175.977 69.5299 175.891 69.4775 175.809 69.4185 175.732L69.3795 175.682C69.2014 175.481 68.6947 175.303 68.2269 174.969 68.0109 174.816 67.8227 174.628 67.6701 174.412 67.4312 174.06 67.3121 173.64 67.3305 173.215 67.3332 173.172 67.3332 173.13 67.3305 173.087 67.3305 172.981 67.3305 172.875 67.3305 172.77L67.3305 172.58C67.3956 172.145 67.5098 171.72 67.6701 171.311L67.6701 171.311C67.6701 171.261 67.7147 171.205 67.7369 171.149L67.7759 171.066 67.7759 171.066C68.3717 169.818 68.4719 168.838 68.2548 168.248L68.0989 168.059C68.0098 168.265 67.8483 169.095 67.542 170.136L67.542 170.242C67.4697 170.514 67.3917 170.798 67.3026 171.082 67.306 171.102 67.306 171.124 67.3026 171.144L67.2247 171.444 67.1912 171.6C67.1912 171.539 67.1912 171.478 67.1467 171.416L67.0687 171.082C66.7012 169.601 66.2168 168.298 67.0186 167.218 67.3305 166.809 67.7069 166.454 68.1323 166.166 68.1323 166.166 68.7281 165.787 68.8784 165.715 70.7115 164.769 72.8725 164.697 74.764 165.52 74.8102 165.516 74.8547 165.537 74.8809 165.575 75.7373 165.948 76.4818 166.537 77.0414 167.285 77.1377 167.423 77.2201 167.57 77.2864 167.725L77.3476 167.87C77.7318 168.933 77.381 170.186 77.1305 171.606 77.1305 171.494 77.0859 171.383 77.0525 171.272 76.763 170.158 76.5848 169.156 76.4957 168.605L76.4567 168.421C76.4122 168.231 76.3787 168.142 76.3509 168.181 76.3114 168.244 76.2757 168.309 76.2451 168.376 76.1939 168.524 76.1532 168.674 76.1226 168.827 76.068 169.659 76.2329 170.49 76.6015 171.238 76.8058 171.719 76.9372 172.228 76.9913 172.747 76.9439 172.78 76.8938 172.808 76.8409 172.831ZM77.3142 174.128 77.214 174.162 76.8409 174.284C77.0263 173.906 77.1232 173.491 77.1249 173.07 77.1249 173.07 77.1249 173.026 77.1249 172.998L77.1249 172.998 77.8376 172.686 78.2051 172.519 78.812 172.229C79.8088 171.734 79.7976 171.027 80.4825 171.188 80.8806 171.395 81.0354 171.886 80.8283 172.285 80.7804 172.376 80.7164 172.457 80.6384 172.525 80.7698 172.44 80.8728 172.318 80.9335 172.174 81.1228 172.231 81.2632 172.39 81.2955 172.586 81.2453 173.109 80.928 173.265 80.4658 173.349L80.1261 173.393C79.9201 173.393 79.6974 173.443 79.4635 173.482L79.4635 173.482 79.2241 173.527C78.5693 173.685 77.9256 173.886 77.2975 174.128Z" fill="#4C5054" transform="matrix(1.00029 0 0 1 188 783)"/><path d="M72.804 175.164 72.7316 174.774C72.6035 174.1 72.1748 173.521 71.9688 173.516 71.7627 173.51 71.4119 173.95 71.2226 174.496 71.2226 174.574 71.1781 174.657 71.1614 174.746L71.1614 174.774C71.0773 175.151 71.0272 175.535 71.011 175.921 71.011 176.177 71.1001 176.149 71.2226 176.016L71.334 175.882 71.3841 175.821 71.3841 175.821 71.3841 175.788 71.3841 175.788 71.4342 175.721C71.6012 175.504 71.7794 175.286 71.9186 175.292 72.0578 175.298 72.1525 175.426 72.2861 175.581L72.3975 175.726C72.7093 176.138 72.9543 176.556 72.8374 175.492 72.8374 175.398 72.8207 175.286 72.804 175.164Z" fill="#4C5054" transform="matrix(1.00029 0 0 1 188 783)"/><path d="M71.462 171.55C71.3729 171.038 70.8273 171.032 69.2849 170.754 69.2036 170.743 69.1212 170.743 69.0399 170.754L68.9953 170.754 68.8784 170.782 68.7392 170.837C68.1807 171.193 67.8539 171.818 67.8817 172.48L67.8817 172.48C67.8873 172.59 67.8984 172.699 67.9151 172.809L67.9151 172.809 67.9151 172.809C67.9257 172.89 67.9446 172.97 67.9708 173.048 67.9708 173.048 67.9708 173.076 67.9708 173.087 68.0176 173.224 68.0911 173.351 68.188 173.46 68.2954 173.582 68.4285 173.679 68.5777 173.744 68.8472 173.835 69.129 173.883 69.413 173.889 69.5154 173.887 69.6179 173.878 69.7192 173.861L69.786 173.861C69.9252 173.836 70.0628 173.802 70.1981 173.761 71.1313 173.466 71.6814 172.504 71.462 171.55Z" fill="#4C5054" transform="matrix(1.00029 0 0 1 188 783)"/><path d="M76.0112 171.918 76.0112 171.918C76.0112 171.84 75.9611 171.762 75.9333 171.689L75.9333 171.689 75.8943 171.595C75.8559 171.518 75.8136 171.444 75.7663 171.372L75.7663 171.372 75.7663 171.372C75.5647 171.022 75.1783 170.82 74.7751 170.854L74.2851 170.921 74.2573 170.921 74.2573 170.921 74.2573 170.921 74.2573 170.921C73.1047 171.077 72.6703 171.116 72.5868 171.567 72.3129 172.512 72.8157 173.509 73.7394 173.85 74.1565 174.007 74.607 174.055 75.048 173.989 75.1838 173.963 75.3163 173.922 75.4433 173.866L75.499 173.839 75.5268 173.839 75.5268 173.839C75.5641 173.82 75.5992 173.797 75.6326 173.772 75.685 173.732 75.7334 173.687 75.7774 173.638L75.8108 173.605C75.8876 173.512 75.9478 173.406 75.989 173.293 76.1393 172.893 76.1649 172.456 76.0614 172.04Z" fill="#4C5054" transform="matrix(1.00029 0 0 1 188 783)"/><path d="M66.5676 95.2215C66.5676 95.9226 65.5231 96.491 64.2345 96.491 62.946 96.491 61.9015 95.9226 61.9015 95.2215 61.9015 94.5203 62.946 93.9519 64.2345 93.9519 65.5231 93.9519 66.5676 94.5203 66.5676 95.2215Z" fill="#FFFFFF" transform="matrix(1.00029 0 0 1 188 783)"/><path d="M81.2899 95.2215C81.2899 95.9226 80.2453 96.491 78.9568 96.491 77.6683 96.491 76.6237 95.9226 76.6237 95.2215 76.6237 94.5203 77.6683 93.9519 78.9568 93.9519 80.2453 93.9519 81.2899 94.5203 81.2899 95.2215Z" fill="#FFFFFF" transform="matrix(1.00029 0 0 1 188 783)"/><path d="M190.61 154.79 189.775 154.79" stroke="#DCE3E5" stroke-width="1.11364" stroke-miterlimit="10" fill="none" transform="matrix(1.00029 0 0 1 188 783)"/><path d="M188.093 154.79 172.135 154.79" stroke="#DCE3E5" stroke-width="1.11364" stroke-miterlimit="10" stroke-dasharray="1.68159 1.68159" fill="none" transform="matrix(1.00029 0 0 1 188 783)"/><path d="M171.294 154.79 170.459 154.79" stroke="#DCE3E5" stroke-width="1.11364" stroke-miterlimit="10" fill="none" transform="matrix(1.00029 0 0 1 188 783)"/><path d="M247.868 154.901 247.032 154.901" stroke="#DCE3E5" stroke-width="1.11364" stroke-miterlimit="10" fill="none" transform="matrix(1.00029 0 0 1 188 783)"/><path d="M245.351 154.901 229.392 154.901" stroke="#DCE3E5" stroke-width="1.11364" stroke-miterlimit="10" stroke-dasharray="1.68159 1.68159" fill="none" transform="matrix(1.00029 0 0 1 188 783)"/><path d="M228.552 154.901 227.716 154.901" stroke="#DCE3E5" stroke-width="1.11364" stroke-miterlimit="10" fill="none" transform="matrix(1.00029 0 0 1 188 783)"/><path d="M248.597 172.441 247.762 172.441" stroke="#D60000" stroke-width="1.11364" stroke-miterlimit="10" fill="none" transform="matrix(1.00029 0 0 1 188 783)"/><path d="M246.108 172.441 170.938 172.441" stroke="#D60000" stroke-width="1.11364" stroke-miterlimit="10" stroke-dasharray="1.65375 1.65375" fill="none" transform="matrix(1.00029 0 0 1 188 783)"/><path d="M170.114 172.441 169.278 172.441" stroke="#D60000" stroke-width="1.11364" stroke-miterlimit="10" fill="none" transform="matrix(1.00029 0 0 1 188 783)"/><path d="M169.557 103.524 249.243 103.524 249.243 176.901 169.557 176.901Z" stroke="#FFAF10" stroke-width="1.11364" stroke-miterlimit="10" fill="none" transform="matrix(1.00029 0 0 1 188 783)"/><path d="M272.975 67.2191 276.315 62.3135 279.656 67.3249 272.975 67.2191Z" fill="#CBD0D1" transform="matrix(1.00029 0 0 1 188 783)"/><path d="M87.4539 92.1478C87.4539 88.0163 86.4794 83.9125 82.0249 83.9125L62.8147 83.9125C56.3333 83.9125 53.2151 82.5316 51.7897 80.8778 51.0643 80.0604 50.6676 79.003 50.676 77.91 50.676 75.4043 53.3153 74.5134 49.3285 71.863 51.5558 71.217 56.5672 72.1247 57.6307 74.647 58.6775 72.6815 61.7957 66.7681 58.6051 63.5107 61.5284 64.4851 66.6344 69.4018 65.7547 75.0647 68.8617 72.4198 71.0778 64.1343 70.2537 61.8625 73.9455 64.7635 75.872 71.1669 74.9422 76.2451 77.587 76.156 81.8523 71.4453 80.5772 65.3203 83.9181 69.0789 86.1899 73.1158 85.1876 77.743 88.1165 78.5448 89.8649 75.2039 90.3438 72.4198 95.2716 84.1798 90.199 92.3093 90.199 92.3093Z" fill="#4C5054" transform="matrix(1.00029 0 0 1 188 783)"/><path d="M51.45 92.6156C53.4935 91.307 56.5783 92.8049 56.4614 91.8639 56.0438 88.4561 56.2776 85.5662 59.3401 83.7566L52.4133 81.4848C50.3586 81.1618 50.882 83.4837 50.7094 87.5151 50.5614 89.3058 51.3729 91.0409 52.842 92.0755" fill="#4C5054" transform="matrix(1.00029 0 0 1 188 783)"/><path d="M26.8331 31.9224 30.174 27.0168 33.5149 32.0282 26.8331 31.9224Z" fill="#CBD0D1" transform="matrix(1.00029 0 0 1 188 783)"/><path d="M10.006 10.2176 232.55 10.2176 232.55 26.9222 10.006 26.9222Z" stroke="#4C5054" stroke-width="0.556818" stroke-miterlimit="10" fill="#EBF0F2" transform="matrix(1.00029 0 0 1 188 783)"/><path d="M163.883 37.5908 424.719 37.5908 424.719 61.3447 163.883 61.3447Z" stroke="#4C5054" stroke-width="0.556818" stroke-miterlimit="10" fill="#EBF0F2" transform="matrix(1.00029 0 0 1 188 783)"/><text fill="#333332" font-family="Arial,Arial_MSFontService,sans-serif" font-weight="700" font-size="14" transform="matrix(0.556978 0 0 0.556818 200.237 803)">' </text><text fill="#333332" font-family="Arial,Arial_MSFontService,sans-serif" font-weight="700" font-size="14" transform="matrix(0.556978 0 0 0.556818 204.257 803)">UNION SELECT username</text><text fill="#333332" font-family="Arial,Arial_MSFontService,sans-serif" font-weight="700" font-size="14" transform="matrix(0.556978 0 0 0.556818 301.317 803)">, </text><text fill="#333332" font-family="Arial,Arial_MSFontService,sans-serif" font-weight="700" font-size="14" transform="matrix(0.556978 0 0 0.556818 305.65 803)">password FROM users</text><text fill="#333332" font-family="Arial,Arial_MSFontService,sans-serif" font-weight="700" font-size="14" transform="matrix(0.556978 0 0 0.556818 390.146 803)">--</text><text fill="#333332" font-family="Arial,Arial_MSFontService,sans-serif" font-weight="700" font-size="14" transform="matrix(0.556978 0 0 0.556818 356.525 829)">SELECT name</text><text fill="#333332" font-family="Arial,Arial_MSFontService,sans-serif" font-weight="700" font-size="14" transform="matrix(0.556978 0 0 0.556818 409.822 829)">, </text><text fill="#333332" font-family="Arial,Arial_MSFontService,sans-serif" font-weight="700" font-size="14" transform="matrix(0.556978 0 0 0.556818 414.155 829)">description FROM products WHERE category </text><text fill="#333332" font-family="Arial,Arial_MSFontService,sans-serif" font-weight="700" font-size="14" transform="matrix(0.556978 0 0 0.556818 356.525 839)">= </text><text fill="#333332" font-family="Arial,Arial_MSFontService,sans-serif" font-weight="700" font-size="14" transform="matrix(0.556978 0 0 0.556818 363.245 839)">'</text><text fill="#333332" font-family="Arial,Arial_MSFontService,sans-serif" font-weight="700" font-size="14" transform="matrix(0.556978 0 0 0.556818 365.099 839)">Gifts</text><text fill="#333332" font-family="Arial,Arial_MSFontService,sans-serif" font-weight="700" font-size="14" transform="matrix(0.556978 0 0 0.556818 382.861 839)">' </text><text fill="#333332" font-family="Arial,Arial_MSFontService,sans-serif" font-weight="700" font-size="14" transform="matrix(0.556978 0 0 0.556818 386.882 839)">UNION SELECT username</text><text fill="#333332" font-family="Arial,Arial_MSFontService,sans-serif" font-weight="700" font-size="14" transform="matrix(0.556978 0 0 0.556818 483.942 839)">, </text><text fill="#333332" font-family="Arial,Arial_MSFontService,sans-serif" font-weight="700" font-size="14" transform="matrix(0.556978 0 0 0.556818 488.275 839)">password FROM users</text><text fill="#333332" font-family="Arial,Arial_MSFontService,sans-serif" font-weight="700" font-size="14" transform="matrix(0.556978 0 0 0.556818 572.77 839)">--</text><path d="M394.456 184.257C397.971 184.257 400.82 187.106 400.82 190.621L400.82 191.406C400.82 194.921 397.971 197.771 394.456 197.771L333.077 197.771C329.563 197.771 326.713 194.921 326.713 191.406L326.713 190.621C326.713 187.106 329.563 184.257 333.077 184.257Z" stroke="#D60000" stroke-width="0.556818" stroke-miterlimit="10" fill="#EDD6D6" transform="matrix(1.00029 0 0 1 188 783)"/><text fill="#D60000" font-family="Arial,Arial_MSFontService,sans-serif" font-weight="700" font-size="14" transform="matrix(0.556978 0 0 0.556818 530.157 976)">All passwords</text><path d="M335.004 187.603 334.737 190.025 337.192 189.34 337.41 191.011 335.182 191.172 336.647 193.121 335.154 193.918 334.13 191.863 333.228 193.906 331.674 193.121 333.128 191.172 330.9 191 331.156 189.329 333.556 190.014 333.289 187.592Z" fill="#D60000" transform="matrix(1.00029 0 0 1 188 783)"/><path d="M346.035 208.69C349.765 208.69 352.789 211.714 352.789 215.444L352.789 215.45C352.789 219.18 349.765 222.204 346.035 222.204L278.398 222.204C274.668 222.204 271.644 219.18 271.644 215.45L271.644 215.444C271.644 211.714 274.668 208.69 278.398 208.69Z" stroke="#D60000" stroke-width="0.556818" stroke-miterlimit="10" fill="#EDD6D6" transform="matrix(1.00029 0 0 1 188 783)"/><text fill="#D60000" font-family="Arial,Arial_MSFontService,sans-serif" font-weight="700" font-size="14" transform="matrix(0.556978 0 0 0.556818 479.951 1001)">All usernames</text><path d="M283.71 215.155C284.487 214.685 284.952 213.835 284.929 212.927 285.101 211.731 284.271 210.622 283.075 210.45 281.879 210.278 280.769 211.108 280.597 212.304 280.568 212.511 280.568 212.721 280.597 212.927 280.572 213.876 281.082 214.759 281.917 215.21 280.709 216.819 278.359 215.316 278.353 220.222L287.53 220.222C287.53 216.151 284.941 216.892 283.71 215.155Z" stroke="#D60000" stroke-width="0.556818" stroke-miterlimit="10" fill="none" transform="matrix(1.00029 0 0 1 188 783)"/><path d="M282.942 220.444 282.162 219.52 282.619 216.24 282.19 215.65 282.63 215.271 283.008 215.271 283.476 215.628 283.103 216.218 283.799 219.503 282.942 220.444Z" fill="#D60000" transform="matrix(1.00029 0 0 1 188 783)"/><path d="M352.789 215.45 413.399 215.45 413.399 189.959" stroke="#D60000" stroke-width="0.556818" stroke-miterlimit="10" fill="none" transform="matrix(1.00029 0 0 1 188 783)"/><path d="M271.644 215.45 258.391 215.45 258.391 191.016" stroke="#D60000" stroke-width="0.556818" stroke-miterlimit="10" fill="none" transform="matrix(1.00029 0 0 1 188 783)"/><path d="M385.43 218.791 380.524 215.45 385.535 212.109 385.43 218.791Z" fill="#D60000" transform="matrix(1.00029 0 0 1 188 783)"/></g></svg>